<?xml version="1.0" encoding="UTF-8"?>
<svg xmlns="http://www.w3.org/2000/svg" version="1.1" viewBox="0 0 1000 800">
  <defs>
    <style>
      .cls-1 {
        fill: #036;
      }

      .cls-2 {
        fill: #00ced1;
      }
    </style>
  </defs>
  <!-- Generator: Adobe Illustrator 28.7.0, SVG Export Plug-In . SVG Version: 1.2.0 Build 136)  -->
  <g>
    <g id="House_roof_logo">
      <g>
        <g>
          <g id="House_roof_logo-2" data-name="House_roof_logo">
            <polyline id="roof_shape" class="cls-1" points="175.01 289.28 22 417.68 114.56 417.68 501 93.42 887.44 417.68 980 417.68 725.78 204.36 725.78 97.23 652.28 97.23 652.28 142.69 501 15.75 501 15.75 501 15.75 175.01 289.28"/>
          </g>
          <path class="cls-2" d="M438.51,383.68q.28,0,0,0h0ZM438.51,383.68q.28,0,0,0h0ZM563.49,383.68q-.28,0,0,0h0ZM563.49,383.68q-.28,0,0,0h0ZM441.88,349.13l-3.93,27.24c-.28.56-.28,1.4-.28,1.97,0,1.97.56,3.93,1.12,5.06.28.28,0,.28,0,.28h124.71q-.28,0-.28-.28c.56-1.12,1.12-3.09,1.12-5.06v-1.97l-4.21-27.24h-118.25ZM449.46,299.98l-5.34,34.55h113.75l-5.34-34.55h-103.08ZM456.76,255.04c-.84,2.25-1.4,5.62-1.97,9.27l-3.09,20.78h98.59l-3.09-20.78c-.56-3.65-1.12-7.02-1.97-9.27h-88.48ZM436.54,285.1l3.65-23.03c.28-2.53.84-4.77,1.4-7.02h-70.78c-2.81,0-5.06.84-6.46,2.53-1.97,1.97-3.65,5.34-5.06,8.43l-8.15,19.1h85.39ZM429.24,334.53l5.06-34.55h-89.32l-14.32,34.55h98.59ZM423.34,383.68c-.28-1.69-.56-3.65-.56-5.34,0-1.4.28-2.81.28-4.21l3.93-25h-102.8l-12.08,29.21c0,.28.28.56.84,1.12.84,1.12,2.53,1.97,4.21,2.81,1.97.84,4.21,1.4,6.46,1.4h99.71ZM575.01,349.13l3.93,25c.28,1.4.28,2.81.28,4.21,0,1.69-.28,3.65-.56,5.34h99.99c1.97,0,4.21-.56,6.18-1.4,1.69-.84,3.37-1.69,4.49-2.81.28-.56.56-.84.56-1.12l-12.08-29.21h-102.8ZM567.71,299.98l5.06,34.55h98.87l-14.61-34.55h-89.32ZM560.69,255.04c.56,2.25.84,4.49,1.12,7.02l3.65,23.03h85.39l-8.15-19.1c-1.4-3.09-2.81-6.46-5.06-8.43-1.4-1.69-3.37-2.53-6.18-2.53h-70.78Z"/>
        </g>
        <g>
          <path class="cls-1" d="M392.58,474.78h-42.78v28.82h47.71v15.62h-67.01v-101.1h64.63v15.62h-45.33v25.4h42.78v15.62Z"/>
          <path class="cls-1" d="M538.01,477.25c-.62-13.63-1.29-29.97-1.29-44.62h-.39c-3.79,12.85-8.53,26.94-13.53,40.79l-16.31,44.61h-15.28l-14.56-44.2c-4.42-13.87-8.3-28-11.26-41.19h-.3c-.54,13.83-1.11,30.92-1.95,45.26l-2.4,41.33h-18.3l6.73-101.1h26.67l14.31,40.49c3.82,11.58,7.29,24.04,9.87,35.24h.47c3.04-10.94,6.92-23.87,11.17-35.34l15.51-40.39h26.2l5.75,101.1h-19.15l-1.96-41.98Z"/>
          <path class="cls-1" d="M609.36,498.07c6.69,3.82,16.58,7.24,27.35,7.24,12.42,0,19.42-5.46,19.42-13.72,0-7.45-5.17-11.92-19.47-16.21-18.54-5.51-30.14-14.1-30.14-29.78,0-16.81,14.88-29.28,37.84-29.28,12.44,0,21.16,2.46,27.28,5.44l-4.9,15.28c-3.96-1.95-11.93-5.25-22.77-5.25-12.6,0-17.79,6.25-17.79,12.16,0,7.73,6.45,11.4,21.01,16.05,19.13,6.17,28.69,14.65,28.69,30.4s-11.99,30.61-40.75,30.61c-11.73,0-24.01-3.34-30.33-7.16l4.56-15.79Z"/>
        </g>
        <g>
          <path class="cls-2" d="M29.7,698.58c11.2,5.92,28.46,11.91,47.07,11.91s27.98-7.01,27.98-18.1c0-9.79-8.17-15.86-30.31-22.29-29.81-8.58-51.39-23.12-51.39-50.84,0-29.29,26.18-50.94,67.23-50.94,21.89,0,36.91,4.05,48.54,9.29l-9.48,31.34c-7.31-3.25-21.09-8.75-39.76-8.75-17.43,0-25.75,7.41-25.75,15.92,0,10.9,10.75,15.44,33.86,22.81,32.33,10.39,48.04,25.35,48.04,51.22,0,27.19-21.14,52.67-72.04,52.67-20.93,0-42.04-5.79-52.69-11.71l8.69-32.53Z"/>
          <path class="cls-2" d="M213.62,571.33v92.72c0,30.57,12.5,47.83,35.37,47.83s35.95-16.54,35.95-47.83v-92.72h39.85v91.52c0,54.84-29.57,79.98-77.54,79.98-44.97,0-73.49-23.34-73.49-80.7v-90.8h39.85Z"/>
          <path class="cls-2" d="M359.02,739.83v-168.5h49.16l38,60.38c11.75,19.23,22.15,40.17,30.7,60.68l.7-.11c-2.74-23.84-2.99-44.23-2.99-67.87v-53.09h37.04v168.5h-43.19l-39.64-65.16c-11.49-19.5-23.7-41.19-33.29-62.5l-.95.11c1.25,24.13,1.5,47.25,1.5,72.65v54.91h-37.04Z"/>
          <path class="cls-2" d="M583.34,603.85h-50.72v-32.53h142.09v32.53h-51.51v135.97h-39.85v-135.97Z"/>
          <path class="cls-2" d="M805.24,669.48h-69.87v38.21h77.98v32.13h-117.83v-168.5h113.98v32.13h-74.12v33.89h69.87v32.13Z"/>
          <path class="cls-2" d="M978.19,734.46c-7.53,3.76-25.74,8.37-49,8.37-63.44,0-96.69-36.82-96.69-84.92,0-55.43,43.15-89.58,100.09-89.58,22.54,0,39.95,4.37,47.67,8.5l-8.54,30.95c-8.82-3.82-21.84-7.32-37.59-7.32-33.85,0-59.7,19.06-59.7,55.09,0,31.64,21.44,54.69,60.05,54.69,13.74,0,28.46-2.66,37.21-6.44l6.51,30.65Z"/>
        </g>
        <rect class="cls-1" x="705.94" y="459.44" width="273.84" height="15"/>
        <rect class="cls-1" x="22" y="459.44" width="273.84" height="15"/>
      </g>
    </g>
  </g>
</svg>